# xmcd CD database file
#
# Track frame offsets:
#	150
#	20042
#	47842
#	75642
#	99577
#	146127
#	169377
#	207825
#
# Disc length: 3202 seconds
#
# Revision: 4
# Processed by: cddbd v1.5.2PL0 Copyright (c) Steve Scherf et al.
# Submitted via: CDex 1.85
#
DISCID=6f0c8008
DTITLE=Loreena McKennitt - The Book of Secrets
DYEAR=1997
DGENRE=Celtic
TTITLE0=Prologue
TTITLE1=The Mummers' Dance
TTITLE2=Skellig
TTITLE3=Marco Polo
TTITLE4=The Highwayman
TTITLE5=La Serenissima
TTITLE6=Night Ride Across the Caucasus
TTITLE7=Dante's Prayer
EXTD=YEAR: 1997
EXTT0=
EXTT1=
EXTT2=
EXTT3=
EXTT4=
EXTT5=
EXTT6=
EXTT7=
PLAYORDER=
